<svg xmlns="http://www.w3.org/2000/svg" width="300" height="120.324"><path d="M38.866 26.308C17.72 26.308.1 35.278.1 62.345.1 83.787 11.95 97.29 39.412 97.29c32.327 0 34.4-21.295 34.4-21.295H58.146S54.79 87.46 38.457 87.46c-13.302 0-22.87-8.985-22.87-21.58H75.45v-7.903c0-12.46-7.91-31.67-36.584-31.67zm-.546 10.1c12.663 0 21.295 7.76 21.295 19.385h-43.68C15.934 43.45 27.2 36.41 38.32 36.41z" fill="#e53238"/><path d="M75.438.1v83.597c0 4.745-.34 11.408-.34 11.408h14.94s.537-4.785.537-9.16c0 0 7.38 11.55 27.45 11.55 21.136 0 35.492-14.674 35.492-35.696 0-19.558-13.187-35.287-35.457-35.287-20.854 0-27.334 11.262-27.334 11.262V.1zm38.766 36.753c14.352 0 23.478 10.652 23.478 24.946 0 15.327-10.54 25.354-23.375 25.354-15.318 0-23.58-11.96-23.58-25.22 0-12.353 7.413-25.08 23.477-25.08z" fill="#0064d2"/><path d="M190.645 26.308c-31.812 0-33.852 17.42-33.852 20.203h15.834s.83-10.17 16.926-10.17c10.46 0 18.564 4.79 18.564 13.993v3.276h-18.564c-24.645 0-37.674 7.208-37.674 21.84 0 14.397 12.037 22.232 28.306 22.232 22.17 0 29.313-12.25 29.313-12.25 0 4.87.375 9.673.375 9.673h14.076s-.545-5.952-.545-9.76V52.43c0-21.58-17.407-26.122-32.76-26.122zm17.472 37.13v4.367c0 5.697-3.515 19.86-24.212 19.86-11.333 0-16.192-5.655-16.192-12.216 0-11.936 16.364-12.013 40.404-12.013z" fill="#f5af02"/><path d="M214.88 29.04h17.812l25.565 51.22 25.507-51.22H299.9l-46.46 91.184h-16.925l13.406-25.418z" fill="#86b817"/></svg>