<svg xmlns="http://www.w3.org/2000/svg" viewBox="358.8 81 307.2 399" preserveAspectRatio="XMinYmin"><path fill="#E6E6E6" d="M543.1 234.6l-.6-.6c-.1.6.6.6.6.6z"/><linearGradient id="a" gradientUnits="userSpaceOnUse" x1="58.75" y1="36.25" x2="38.75" y2="16.25" gradientTransform="translate(205.16 -11.2) scale(6.144)"><stop offset="0" stop-color="#F38687"/><stop offset="1" stop-color="#F4CC98"/></linearGradient><path fill="url(#a)" d="M543.1 234.6l30.7-61.4L450.9 81s82.9 142 91.5 153l.7.6z"/><linearGradient id="b" gradientUnits="userSpaceOnUse" x1="36.25" y1="63.75" x2="18.75" y2="46.25" gradientTransform="translate(205.16 -11.2) scale(6.144)"><stop offset="0" stop-color="#FB9161"/><stop offset="1" stop-color="#FFCD74"/></linearGradient><path fill="url(#b)" d="M358.8 326.7l30.7 92.2v-92.2l-30.7-92.2v92.2z"/><linearGradient id="c" gradientUnits="userSpaceOnUse" x1="57.396" y1="37.396" x2="37.5" y2="17.5" gradientTransform="translate(205.16 -11.2) scale(6.144)"><stop offset="0" stop-color="#FACD8E"/><stop offset="1" stop-color="#F1DFBC"/></linearGradient><path fill="url(#c)" d="M450.9 81v61.4l91.5 91.5c-8.5-11-91.5-152.9-91.5-152.9z"/><linearGradient id="d" gradientUnits="userSpaceOnUse" x1="38.75" y1="46.25" x2="26.25" y2="33.75" gradientTransform="translate(205.16 -11.2) scale(6.144)"><stop offset="0" stop-color="#F2BD6B"/><stop offset="1" stop-color="#FAD68E"/></linearGradient><path fill="url(#d)" d="M420.2 142.4l-61.4 92.2 30.7 92.2 30.7-122.9v-61.5z"/><linearGradient id="e" gradientUnits="userSpaceOnUse" x1="37.5" y1="55" x2="37.5" y2="35" gradientTransform="translate(205.16 -11.2) scale(6.144)"><stop offset="0" stop-color="#F57A5B"/><stop offset="1" stop-color="#F7BC89"/></linearGradient><path fill="url(#e)" d="M389.5 326.7l92.2-30.7-61.4-92.2-30.8 122.9z"/><linearGradient id="f" gradientUnits="userSpaceOnUse" x1="51.25" y1="43.75" x2="36.25" y2="28.75" gradientTransform="translate(205.16 -11.2) scale(6.144)"><stop offset="0" stop-color="#F87C7A"/><stop offset="1" stop-color="#FFAC8E"/></linearGradient><path fill="url(#f)" d="M542.4 233.9l-91.5-91.5-30.7 61.4 122.9 30.7c0 .1-.7.1-.7-.6z"/><linearGradient id="g" gradientUnits="userSpaceOnUse" x1="73.75" y1="41.25" x2="56.25" y2="23.75" gradientTransform="translate(205.16 -11.2) scale(6.144)"><stop offset="0" stop-color="#F1475F"/><stop offset="1" stop-color="#EF6D83"/></linearGradient><path fill="url(#g)" d="M666 203.8l-92.2-92.2 61.4 153.6 30.8-61.4z"/><linearGradient id="h" gradientUnits="userSpaceOnUse" x1="65" y1="55" x2="65" y2="20" gradientTransform="translate(205.16 -11.2) scale(6.144)"><stop offset="0" stop-color="#F4775A"/><stop offset="1" stop-color="#F4866E"/></linearGradient><path fill="url(#h)" d="M573.8 111.7l30.7 122.9 30.7 92.2v-61.4l-61.4-153.7z"/><linearGradient id="i" gradientUnits="userSpaceOnUse" x1="45.003" y1="50" x2="45.003" y2="35" gradientTransform="translate(205.16 -11.2) scale(6.144)"><stop offset="0" stop-color="#F29D82"/><stop offset="1" stop-color="#F0D8A4"/></linearGradient><path fill="url(#i)" d="M543.1 234.6l-122.9-30.7 61.4 92.2c0-.1 63.3-62.8 61.5-61.5z"/><linearGradient id="j" gradientUnits="userSpaceOnUse" x1="80" y1="60" x2="65" y2="45" gradientTransform="translate(205.16 -11.2) scale(6.144)"><stop offset="0" stop-color="#E13B7A"/><stop offset="1" stop-color="#EC5D74"/></linearGradient><path fill="url(#j)" d="M635.2 265.3v153.6l30.7-92.2V203.8l-30.7 61.5z"/><linearGradient id="k" gradientUnits="userSpaceOnUse" x1="55" y1="50" x2="47.5" y2="42.5" gradientTransform="translate(205.16 -11.2) scale(6.144)"><stop offset="0" stop-color="#F17B5F"/><stop offset="1" stop-color="#F4926B"/></linearGradient><path fill="url(#k)" d="M573.8 173.1l-30.7 61.4c1.8-1.3-61.4 61.4-61.4 61.4L451 357.3l153.6-122.9-30.8-61.3z"/><linearGradient id="l" gradientUnits="userSpaceOnUse" x1="63.75" y1="61.25" x2="51.25" y2="48.75" gradientTransform="translate(205.16 -11.2) scale(6.144)"><stop offset="0" stop-color="#F05778"/><stop offset="1" stop-color="#F894A5"/></linearGradient><path fill="url(#l)" d="M450.9 357.4l184.3-30.7-30.7-92.2-153.6 122.9z"/><linearGradient id="m" gradientUnits="userSpaceOnUse" x1="42.5" y1="77.5" x2="32.5" y2="67.5" gradientTransform="translate(205.16 -11.2) scale(6.144)"><stop offset="0" stop-color="#FB9161"/><stop offset="1" stop-color="#FFCD74"/></linearGradient><path fill="url(#m)" d="M420.2 388.2l30.7 92.2v-30.7l-30.7-61.5z"/><linearGradient id="n" gradientUnits="userSpaceOnUse" x1="42.5" y1="77.5" x2="40" y2="75" gradientTransform="translate(205.16 -11.2) scale(6.144)"><stop offset="0" stop-color="#F05778"/><stop offset="1" stop-color="#F894A5"/></linearGradient><path fill="url(#n)" d="M450.9 480.3l30.7-30.7h-30.7v30.7z"/><linearGradient id="o" gradientUnits="userSpaceOnUse" x1="43.75" y1="76.25" x2="33.75" y2="66.25" gradientTransform="translate(205.16 -11.2) scale(6.144)"><stop offset="0" stop-color="#F38687"/><stop offset="1" stop-color="#F4CC98"/></linearGradient><path fill="url(#o)" d="M420.2 388.2l61.4 61.4h-30.7l-30.7-61.4z"/><linearGradient id="p" gradientUnits="userSpaceOnUse" x1="61.25" y1="78.75" x2="56.25" y2="73.75" gradientTransform="translate(205.16 -11.2) scale(6.144)"><stop offset="0" stop-color="#F05778"/><stop offset="1" stop-color="#F894A5"/></linearGradient><path fill="url(#p)" d="M543.1 449.6l30.7 30.7v-30.7h-30.7z"/><linearGradient id="q" gradientUnits="userSpaceOnUse" x1="65" y1="75" x2="60" y2="70" gradientTransform="translate(205.16 -11.2) scale(6.144)"><stop offset="0" stop-color="#E13B7A"/><stop offset="1" stop-color="#EC5D74"/></linearGradient><path fill="url(#q)" d="M604.5 388.2l-30.7 92.2v-30.7l30.7-61.5z"/><linearGradient id="r" gradientUnits="userSpaceOnUse" x1="62.5" y1="72.5" x2="60" y2="70" gradientTransform="translate(205.16 -11.2) scale(6.144)"><stop offset="0" stop-color="#F4775A"/><stop offset="1" stop-color="#F4866E"/></linearGradient><path fill="url(#r)" d="M543.1 449.6l61.4-61.4-30.7 61.4h-30.7z"/></svg>