<svg xmlns="http://www.w3.org/2000/svg" version="1" width="245" height="40" viewBox="0 0 245.00001 40.000002"><g fill="#84c044"><path d="M19.638 39.874c-5.574 0-10.323-2.044-14.114-6.078C1.94 29.978.124 25.2.124 19.594c0-5.297 1.997-10.076 5.772-13.822 3.78-3.746 8.44-5.646 13.85-5.646 8.19 0 15.156 4.98 18.22 13.008H27.495c-2.356-2.534-4.882-3.732-7.856-3.732-5.587 0-10.133 4.596-10.133 10.245 0 5.936 4.64 10.95 10.133 10.95 3.665 0 6.843-1.916 8.72-5.257l.104-.188H17.45v-7.436H39c.05.842.1 1.662.1 2.42 0 4.297-1.067 7.957-3.26 11.187-3.658 5.354-9.714 8.55-16.202 8.55z"/><path d="M19.746.25c8.08 0 14.96 4.88 18.04 12.76H27.6c-2.448-2.548-4.98-3.734-7.96-3.734-5.657 0-10.26 4.652-10.26 10.37 0 6.005 4.698 11.078 10.26 11.078 3.71 0 6.928-1.94 8.827-5.323l.21-.374H17.573v-7.184h21.308c.047.773.092 1.563.092 2.293 0 4.273-1.06 7.91-3.238 11.117-3.634 5.32-9.65 8.498-16.098 8.498-5.54 0-10.258-2.032-14.024-6.04C2.056 29.918.25 25.17.25 19.595c0-5.26 1.983-10.01 5.735-13.73C9.74 2.138 14.37.25 19.745.25m0-.25C14.313 0 9.578 1.948 5.81 5.683 2.043 9.418 0 14.29 0 19.593c0 5.684 1.83 10.448 5.434 14.29C9.2 37.89 13.99 40 19.64 40c6.51 0 12.643-3.247 16.303-8.606 2.207-3.25 3.282-6.93 3.282-11.26 0-.81-.054-1.677-.107-2.543H17.324v7.687h10.924c-1.884 3.356-5.06 5.196-8.61 5.196-5.274 0-10.008-4.71-10.008-10.826 0-5.52 4.412-10.12 10.008-10.12 3.013 0 5.49 1.244 7.856 3.733H38.15C35.08 5.034 27.924 0 19.745 0zM58.345 39.116l-7.514-12.73v12.73H41.72V.883h12.575c4.23 0 7.16.34 9.612 2.09 3.394 2.38 5.114 5.97 5.114 10.668 0 6.19-3.205 10.777-8.572 12.274l-.172.048L69.6 39.117H58.346zm-7.514-20.48h1.955c4.98 0 7.012-1.384 7.012-4.78 0-3.194-1.93-4.618-6.258-4.618H50.83v9.398z"/><path d="M54.293 1.008c4.205 0 7.114.338 9.54 2.068 3.358 2.357 5.06 5.91 5.06 10.565 0 6.13-3.17 10.672-8.48 12.153l-.343.096.207.29 9.08 12.81h-10.94L51.17 26.72l-.464-.787v13.062h-8.863V1.008h12.45m-3.587 17.754h2.08c5.002 0 7.136-1.467 7.136-4.905 0-3.28-1.968-4.745-6.383-4.745h-2.833v9.65M54.293.757h-12.7v38.485h9.363V26.846l7.317 12.396h11.57L60.48 26.034c5.434-1.515 8.663-6.17 8.663-12.394 0-4.764-1.775-8.39-5.166-10.77-2.583-1.84-5.65-2.113-9.684-2.113zM50.956 18.51V9.364h2.582c4.144 0 6.133 1.3 6.133 4.494 0 3.464-2.258 4.654-6.886 4.654h-1.828zM90.29 39.82c-5.645 0-10.41-2.028-14.168-6.024-3.583-3.82-5.4-8.597-5.4-14.202 0-5.298 1.996-10.076 5.774-13.822C80.24 2.062 84.898.18 90.346.18c5.08 0 9.904 2.006 13.576 5.647 3.794 3.763 5.884 8.71 5.884 13.93 0 5.486-1.905 10.36-5.508 14.094-3.667 3.85-8.642 5.97-14.008 5.97zm.107-30.365c-5.773 0-10.294 4.502-10.294 10.247 0 5.877 4.665 10.84 10.187 10.84 5.746 0 10.08-4.66 10.08-10.84 0-5.65-4.475-10.247-9.973-10.247z"/><path d="M90.344.306c5.05 0 9.84 1.992 13.49 5.61 3.77 3.74 5.846 8.655 5.846 13.84 0 5.454-1.892 10.298-5.474 14.01-3.643 3.823-8.585 5.928-13.917 5.928-5.61 0-10.346-2.013-14.078-5.983-3.56-3.794-5.366-8.543-5.366-14.116 0-5.262 1.983-10.01 5.736-13.73 3.72-3.69 8.35-5.558 13.762-5.558M90.29 30.67c5.817 0 10.204-4.716 10.204-10.968 0-5.72-4.53-10.373-10.097-10.373-5.843 0-10.42 4.555-10.42 10.372 0 5.945 4.723 10.967 10.313 10.967M90.344.053c-5.435 0-10.17 1.894-13.937 5.63-3.767 3.734-5.81 8.605-5.81 13.91 0 5.682 1.83 10.446 5.433 14.288 3.766 4.006 8.61 6.062 14.26 6.062 5.325 0 10.384-2.11 14.097-6.008 3.605-3.736 5.543-8.66 5.543-14.18 0-5.25-2.046-10.177-5.92-14.02C100.297 2.058 95.455.054 90.343.054zm-.054 30.363c-5.273 0-10.062-4.653-10.062-10.715 0-5.63 4.466-10.12 10.17-10.12 5.38 0 9.847 4.49 9.847 10.12 0 6.277-4.468 10.715-9.955 10.715zM126.235 39.71c-8.743 0-13.758-5.418-13.758-14.866V.884h9.166v23.58c0 4.554 1.476 6.675 4.644 6.675 3.343 0 4.968-2.183 4.968-6.675V.883h9.112v23.96c0 9.17-5.416 14.867-14.132 14.867z"/><path d="M140.242 1.008v23.836c0 9.093-5.368 14.74-14.008 14.74-8.664 0-13.633-5.373-13.633-14.74V1.008h8.917v23.457c0 4.575 1.56 6.8 4.77 6.8 3.426 0 5.092-2.224 5.092-6.8V1.008h8.862m.25-.25h-9.362v23.707c0 4.383-1.56 6.55-4.843 6.55-3.175 0-4.52-2.22-4.52-6.55V.757h-9.415v24.087c0 9.635 5.22 14.992 13.883 14.992 8.555 0 14.258-5.573 14.258-14.992V.757z"/><g><path d="M143.317 39.116V.883h12.575c4.23 0 7.16.34 9.612 2.09 3.394 2.382 5.113 5.99 5.113 10.722 0 4.86-2.194 8.982-6.02 11.312-2.365 1.426-5.333 1.713-9.352 1.713h-2.814v12.396h-9.113zm9.22-20.48h1.847c4.98 0 7.013-1.384 7.013-4.78 0-3.194-1.93-4.618-6.26-4.618h-2.6v9.398z"/><path d="M155.892 1.008c4.206 0 7.115.338 9.54 2.068 3.358 2.357 5.06 5.93 5.06 10.62 0 4.813-2.172 8.896-5.96 11.203-2.34 1.41-5.288 1.695-9.287 1.695h-2.94v12.397h-8.862V1.008h12.45m-3.48 17.754h1.97c5.004 0 7.14-1.467 7.14-4.905 0-3.28-1.97-4.745-6.385-4.745h-2.725v9.65m3.48-18.005h-12.7v38.485h9.362V26.846h2.69c3.98 0 6.994-.27 9.416-1.732 3.82-2.327 6.08-6.44 6.08-11.42 0-4.817-1.773-8.443-5.164-10.824-2.582-1.84-5.65-2.113-9.684-2.113zm-3.23 17.754V9.364h2.475c4.143 0 6.134 1.3 6.134 4.494 0 3.464-2.26 4.654-6.888 4.654h-1.72z"/></g><g><path d="M191.673 39.82c-5.645 0-10.412-2.028-14.168-6.024-3.583-3.82-5.4-8.597-5.4-14.202 0-5.297 1.996-10.076 5.773-13.822 3.744-3.71 8.403-5.592 13.85-5.592 5.08 0 9.903 2.006 13.576 5.647 3.794 3.763 5.884 8.71 5.884 13.93 0 5.486-1.904 10.36-5.508 14.094-3.666 3.85-8.64 5.97-14.007 5.97zm.107-30.365c-5.772 0-10.294 4.502-10.294 10.247 0 5.877 4.665 10.84 10.186 10.84 5.746 0 10.08-4.66 10.08-10.84 0-5.65-4.474-10.247-9.972-10.247z"/><path d="M191.728.306c5.05 0 9.84 1.992 13.49 5.61 3.824 3.793 5.846 8.58 5.846 13.84 0 5.454-1.893 10.298-5.474 14.01-3.643 3.823-8.585 5.928-13.917 5.928-5.61 0-10.346-2.013-14.077-5.983-3.56-3.794-5.366-8.543-5.366-14.116 0-5.26 1.982-10.01 5.736-13.73 3.72-3.69 8.35-5.558 13.762-5.558m-.055 30.363c5.817 0 10.204-4.716 10.204-10.968 0-5.72-4.53-10.373-10.097-10.373-5.843 0-10.42 4.555-10.42 10.372.002 5.945 4.723 10.967 10.313 10.967m.055-30.616c-5.435 0-10.17 1.894-13.937 5.63-3.766 3.734-5.81 8.605-5.81 13.91 0 5.682 1.83 10.446 5.435 14.288 3.766 4.006 8.608 6.062 14.26 6.062 5.325 0 10.384-2.11 14.096-6.008 3.606-3.736 5.544-8.66 5.544-14.18 0-5.25-2.046-10.177-5.92-14.02-3.713-3.678-8.555-5.682-13.666-5.682zm-.055 30.363c-5.273 0-10.06-4.653-10.06-10.715 0-5.63 4.465-10.12 10.168-10.12 5.382 0 9.85 4.49 9.85 10.12-.002 6.277-4.47 10.715-9.957 10.715z"/></g><g><path d="M244.875.883v38.233h-8.04l-14.45-21.722v21.722h-9.114V.883h8.256l14.237 21.672V.883"/><path d="M244.75 1.008V38.99h-7.85L222.718 17.67l-.458-.687v22.011h-8.864V1.01h8.062l13.97 21.268.46.697V1.007h8.862m.25-.25h-9.362v21.38L221.593.757h-8.446v38.485h9.362V17.808l14.258 21.434H245V.757z"/></g></g></svg>