<svg xmlns="http://www.w3.org/2000/svg" viewBox="215.3 0 390.8 405.8" preserveAspectRatio="XMinYmin"><linearGradient id="a" gradientUnits="userSpaceOnUse" x1="173.614" y1="516.934" x2="173.614" y2="96.816" gradientTransform="matrix(.864 -.136 .136 .864 241.423 -39.713)"><stop offset="0" stop-color="#0980FE"/><stop offset="1" stop-color="#58C6FA"/></linearGradient><path fill="url(#a)" d="M606.2 360.1l-288.5 45.7-57.4-362.7L548.7-2.5l57.5 362.6z"/><path fill="#fff" d="M588.2 347.2L330.9 388 278.4 56.3l257.3-40.8 52.5 331.7zm-254.5 36.6l250.5-39.6-51.4-324.7-250.5 39.6 51.4 324.7z"/><path fill="#ACE3FD" d="M353.3 118.8l30.1-4.8c-7 10.8-11.2 30.8-8.9 45.7 1.3 8.3 4.7 17.2 11.8 16.1 7.3-1.1 7.2-10.1 9.3-24.1 2.9-20.1 5.7-40.5 30.3-44.4 22.6-3.6 37.3 12.8 41.5 39.6 2.6 16.4.1 30.2-3.3 40.3l-28.3 4.4c4.3-10.2 7.2-26.5 5-40.2-1.8-11.1-5.4-14.6-9.9-13.9-5.8.9-4.9 11.7-7.5 27.5-3.2 19.4-9.4 37.5-30.9 41-22.9 3.7-40-14-44.2-41-2.8-16.2-1.7-32.2 5-46.2zm121.5 89.6l4.6 29.3-39.5 36 48.6 22.1 4.6 29.2-114.6 18.2-4.6-29.3 69.8-11.1-33.8-15.6-2.6-16.2 27.5-26-69.9 11-4.6-29.5 114.5-18.1z"/><path fill="#fff" d="M444.7 67l1.1 6.9-100.2 15.9-1.1-6.9-6.9 1.1 3.3 20.7 6.9-1.1-1.1-6.9 100.2-15.9 1.1 6.9 6.9-1.1-3.3-20.7-6.9 1.1zm50 36.4l-1-6.9-20.7 3.3 1 6.9 6.9-1 33.2 209-6.9 1 1 6.9 20.7-3.2-1-6.9-6.9 1-33.2-209 6.9-1.1zm-102.6-45l2.4-5.7 7.6-1.2-5.5 11.2 10.1 10.4-7.8 1.2-5.5-5.9-3.2 7.2-7.7 1.2 6.4-13-8.7-9 7.8-1.2 4.1 4.8zm127.4 150l-9.9-11 7.5-1.2 4.7 5.5 2.9-6.7 7.3-1.1-6.1 13.4 1.5 9.7-6.7 1-1.2-9.6z"/><path opacity=".65" fill="#08061B" d="M391.4 362.4l-23.3-146.8-2.6.3 22.6 142.6-146.8 23.3-22.5-142.6-3.4.6 23.3 146.8 152.7-24.2z"/><linearGradient id="b" gradientUnits="userSpaceOnUse" x1="-76.643" y1="306.96" x2="95.349" y2="478.954" gradientTransform="matrix(.864 -.136 .136 .864 241.423 -39.713)"><stop offset="0" stop-color="#191741" stop-opacity=".85"/><stop offset="1" stop-color="#08061B" stop-opacity=".95"/></linearGradient><path fill="url(#b)" d="M389.9 359.9l-150.3 23.8-23.2-146.8 150.2-23.8 23.3 146.8z"/><path fill="#1CD7F9" d="M216.4 236.9l23.2 146.8 150.3-23.8-23.3-146.8-150.2 23.8zm163.7 115.7l-133.3 21.1-20.5-129.5 133.3-21.1 20.5 129.5zm-45.7-60.5L310 274.4l4.2-5.8c2.2-3.1 3.2-6.8 2.6-10.6-.6-3.8-2.6-7-5.7-9.3-6.3-4.6-15.2-3.2-19.9 3.2L267 285.1c-4.6 6.3-3.2 15.2 3.2 19.9l24.4 17.7-4.2 5.8c-2.2 3.1-3.2 6.8-2.6 10.6.6 3.8 2.6 7 5.7 9.3 3.2 2.3 7 3.1 10.6 2.6 3.6-.5 7-2.6 9.3-5.7l24.1-33.3c4.6-6.4 3.2-15.3-3.1-19.9zm-43.6-3.1s.7-3.4-3.9-6.8c-1-.8-2.1-1.3-3.3-1.8-2.7-.9-4.3-.1-4.3-.1l17.6-24.2c1.1-1.5 2.8-2.6 4.7-2.9 2-.3 3.8.2 5.4 1.3 1.5 1.1 2.6 2.8 2.9 4.7.3 2-.2 3.8-1.3 5.4L290.8 289zm16.9 52.1c-1.1 1.5-2.8 2.6-4.7 2.9-2 .3-3.8-.2-5.4-1.3-1.5-1.1-2.6-2.8-2.9-4.7-.3-2 .2-3.8 1.3-5.4l4.2-5.8 5.8 4.2c3.3 2.4 4 6.9 1.7 10.1zm24.1-33.3l-17.5 24.1s.3-3.2-4.1-6.7l-35.9-26c-3.2-2.4-3.9-6.8-1.5-10.1 1.1-1.5 2.8-2.6 4.7-2.9 2-.3 3.8.2 5.4 1.3 3.2 2.4 4.3 7.4 3.8 12.9l3.4 1.3L306 280l24.4 17.7c3 2.4 3.8 6.9 1.4 10.1z"/></svg>