<svg xmlns="http://www.w3.org/2000/svg" width="2078.75" height="517.5"><path d="M75.533.62h1927.683c41.377 0 74.918 33.537 74.918 74.908v366.435c0 41.375-33.54 74.912-74.918 74.912H75.533c-41.37 0-74.908-33.537-74.908-74.912V75.528c0-41.37 33.537-74.91 74.908-74.91" fill="#4d71a9"/><path d="M75.533.62h1927.683c41.377 0 74.918 33.537 74.918 74.908v366.435c0 41.375-33.54 74.912-74.918 74.912H75.533c-41.37 0-74.908-33.537-74.908-74.912V75.528c0-41.37 33.537-74.91 74.908-74.91z" fill="none" stroke="#fff" stroke-width="1.2499357" stroke-miterlimit="10"/><path d="M303.904 235.524c-3.47 1.61-6.83 2.496-10.085 2.667-3.257.17-8.948.253-17.07.253h-5.96v-39.968h3.298c8.46 0 14.824.064 19.095.193 4.272.127 7.972.866 11.105 2.218 3.3 1.442 5.726 3.766 7.293 6.978 1.567 3.217 2.35 6.346 2.35 9.39 0 4.147-.722 7.783-2.157 10.912-1.442 3.133-4.062 5.583-7.87 7.358zm9.516 78.92c-4.907 2.118-9.724 3.26-14.463 3.427-4.737.173-13.282.258-25.628.258h-2.54V270.8h8.753c8.458 0 15.206.062 20.24.19 5.03.127 8.985.743 11.862 1.84 4.737 1.693 8.288 4.186 10.657 7.485 2.37 3.3 3.556 7.866 3.556 13.705 0 4.566-1 8.65-2.985 12.245-1.986 3.593-5.136 6.322-9.453 8.18zm50.754-50.18c-7.02-7.568-16.368-12.58-28.04-15.036v-1.016c8.12-3.38 14.484-8.668 19.095-15.86 4.608-7.187 6.913-15.393 6.913-24.612 0-7.95-1.67-14.97-5.01-21.064-3.343-6.09-8.396-10.952-15.164-14.59-6.263-3.384-12.962-5.604-20.11-6.66-7.15-1.06-17.657-1.588-31.533-1.588h-66.74v188.927h75.622c13.11 0 23.92-1.184 32.418-3.555 8.502-2.364 16.307-6.34 23.41-11.924 6.007-4.652 10.786-10.533 14.34-17.638 3.55-7.106 5.328-15.353 5.328-24.74 0-12.856-3.51-23.073-10.532-30.644zm22.18 158.25H188.14c-35.505 0-64.287-28.783-64.287-64.288V160.013c0-35.504 28.782-64.287 64.287-64.287h198.214c35.505 0 64.286 28.783 64.286 64.287v198.213c0 35.505-28.78 64.29-64.286 64.29zm228.126-78.48l-41.022-68.63h-13.883v68.63h-53.98V170.836h53.98v69.557c7.607-.1 13.29-1.207 17.043-3.317 3.752-2.106 7.84-7.684 12.26-16.733 1.44-3.085 2.98-6.476 4.63-10.177 1.643-3.704 3.135-6.993 4.47-9.87 5.45-11.417 12.16-19.23 20.13-23.443 7.964-4.216 17.657-6.326 29.07-6.326 4.01 0 7.81.054 11.41.156 3.598.104 6.174.153 7.714.153v46.27h-10.487c-3.29 0-6.247.642-8.87 1.927-2.62 1.285-4.912 2.905-6.862 4.86-1.956 2.054-3.418 4.11-4.396 6.166-.98 2.06-1.927 4.062-2.855 6.016-2.365 5.55-4.11 9.51-5.24 11.874-1.134 2.365-3.14 4.68-6.017 6.94l55.06 89.144H614.48zM801.253 232.14c-1.698-6.836-4.035-12.31-7.016-16.424-3.19-4.32-6.786-7.326-10.796-9.024-4.01-1.693-8.586-2.542-13.724-2.542-4.838 0-9.205.744-13.112 2.238-3.91 1.49-7.507 4.342-10.795 8.557-3.087 4.01-5.55 9.51-7.405 16.503-1.85 6.993-2.773 15.785-2.773 26.373 0 10.592.87 19.15 2.62 25.68 1.747 6.53 4.01 11.747 6.785 15.654 2.878 4.01 6.478 6.94 10.797 8.79 4.317 1.853 9.098 2.776 14.342 2.776 4.32 0 8.715-.923 13.187-2.776 4.473-1.85 8.043-4.625 10.72-8.328 3.186-4.418 5.6-9.742 7.25-15.963 1.643-6.218 2.466-14.83 2.466-25.832 0-10.278-.85-18.84-2.547-25.68zm-31.537 117.292c-28.28 0-50.258-8.198-65.937-24.6-15.677-16.4-23.518-38.838-23.518-67.318 0-28.79 7.84-51.333 23.517-67.63 15.678-16.296 37.656-24.445 65.936-24.445 28.377 0 50.376 8.2 66.008 24.598 15.63 16.402 23.442 38.893 23.442 67.476 0 28.48-7.788 50.92-23.364 67.318-15.58 16.402-37.61 24.6-66.086 24.6zm224.787-79.582h-55.83v74.184h-53.978V170.836h53.977v59.994h55.83v-59.994h53.98v173.198h-53.98V269.85zm180.682 74.184h-53.98V208.468h-53.673v-37.632h161.322v37.632h-53.67v135.566zm168.183-81.28c-9.15.928-16.55 1.726-22.2 2.393-5.663.67-11.214 1.98-16.663 3.934-4.725 1.647-8.4 4.14-11.026 7.478-2.626 3.344-3.938 7.79-3.938 13.34 0 8.127 2.188 13.707 6.562 16.735 4.363 3.035 10.814 4.553 19.35 4.553 4.726 0 9.563-1.084 14.5-3.242 4.938-2.16 9.413-5.19 13.414-9.1v-36.09zm0 62.928c-3.7 3.086-7.013 5.858-9.938 8.326-2.937 2.47-6.875 4.936-11.8 7.406-4.84 2.363-9.537 4.16-14.113 5.397-4.574 1.232-10.975 1.85-19.2 1.85-15.325 0-28.05-5.138-38.175-15.423-10.13-10.28-15.192-23.234-15.192-38.863 0-12.85 2.57-23.234 7.71-31.154 5.14-7.92 12.545-14.19 22.206-18.82 9.776-4.725 21.438-8.015 35.013-9.866 13.574-1.854 28.174-3.293 43.8-4.32v-.924c0-9.565-3.525-16.17-10.563-19.82-7.05-3.648-17.612-5.477-31.7-5.477-6.375 0-13.825 1.158-22.362 3.475-8.526 2.31-16.862 5.268-24.976 8.866h-4.633v-41.796c5.346-1.543 13.983-3.37 25.907-5.477 11.925-2.105 23.963-3.16 36.088-3.16 29.826 0 51.538 4.96 65.163 14.884 13.625 9.925 20.438 25.064 20.438 45.42v117.83h-53.675v-18.352zm199.348 18.352l-41.023-68.63h-13.887v68.63h-53.974V170.836h53.974v69.557c7.61-.1 13.292-1.207 17.047-3.317 3.755-2.106 7.836-7.684 12.257-16.733 1.43-3.085 2.976-6.476 4.634-10.177 1.63-3.704 3.117-6.993 4.478-9.87 5.427-11.417 12.143-19.23 20.12-23.443 7.965-4.216 17.657-6.326 29.064-6.326 4.01 0 7.808.054 11.407.156 3.6.104 6.178.153 7.723.153v46.27h-10.486c-3.288 0-6.25.642-8.87 1.927-2.622 1.285-4.918 2.905-6.86 4.86-1.97 2.054-3.428 4.11-4.406 6.166-.978 2.06-1.927 4.062-2.848 6.016-2.366 5.55-4.11 9.51-5.243 11.874-1.134 2.365-3.146 4.68-6.022 6.94l55.066 89.144h-62.15zm173.272 0H1662V208.468h-53.662v-37.632h161.312v37.632h-53.662v135.566zm177.665-134.948c-4.988-5.963-12.626-8.944-22.913-8.944-10.472 0-18.676 3.134-24.585 9.406-5.923 6.27-9.183 14.805-9.792 25.6h65.225c-.31-11.41-2.96-20.1-7.935-26.062zm-57.148 58.605c.51 8.022 2.21 14.73 5.1 20.13 2.878 5.397 6.675 9.69 11.408 12.876 4.634 3.188 10.018 5.474 16.197 6.864 6.164 1.388 12.894 2.08 20.192 2.08 6.277 0 12.44-.692 18.52-2.08 6.065-1.39 11.606-3.214 16.65-5.476 4.42-1.954 8.516-4.06 12.257-6.325 3.754-2.26 6.815-4.266 9.182-6.014h5.71v44.57c-4.42 1.753-8.46 3.37-12.115 4.86-3.656 1.49-8.658 3.007-15.035 4.55-5.852 1.543-11.903 2.75-18.11 3.625-6.234.872-13.815 1.31-22.756 1.31-32.705 0-57.758-7.812-75.187-23.442-17.43-15.628-26.145-37.886-26.145-66.782 0-28.274 8.12-50.84 24.373-67.706 16.253-16.86 38.953-25.29 68.172-25.29 26.527 0 46.464 7.148 59.84 21.438 13.363 14.29 20.037 34.75 20.037 61.38v19.433h-118.292" fill="#fff" fill-rule="evenodd"/></svg>